<svg width="188" height="187" viewBox="0 0 188 187" fill="none" xmlns="http://www.w3.org/2000/svg">
<circle cx="94.0152" cy="93.3922" r="93.3922" fill="white"/>
<path d="M148.405 71.6362V82.5142C148.405 83.4759 148.023 84.3982 147.343 85.0782C146.663 85.7582 145.74 86.1402 144.779 86.1402C143.817 86.1402 142.895 85.7582 142.215 85.0782C141.535 84.3982 141.153 83.4759 141.153 82.5142V71.6362C141.153 70.6745 141.535 69.7522 142.215 69.0722C142.895 68.3922 143.817 68.0102 144.779 68.0102C145.74 68.0102 146.663 68.3922 147.343 69.0722C148.023 69.7522 148.405 70.6745 148.405 71.6362ZM43.2505 68.0102C42.2888 68.0102 41.3666 68.3922 40.6865 69.0722C40.0065 69.7522 39.6245 70.6745 39.6245 71.6362V82.5142C39.6245 83.4759 40.0065 84.3982 40.6865 85.0782C41.3666 85.7582 42.2888 86.1402 43.2505 86.1402C44.2122 86.1402 45.1345 85.7582 45.8145 85.0782C46.4945 84.3982 46.8765 83.4759 46.8765 82.5142V71.6362C46.8765 70.6745 46.4945 69.7522 45.8145 69.0722C45.1345 68.3922 44.2122 68.0102 43.2505 68.0102ZM133.901 64.3842V129.652C133.901 131.576 133.137 133.42 131.777 134.78C130.417 136.14 128.572 136.904 126.649 136.904H115.771C113.847 136.904 112.003 136.14 110.643 134.78C109.283 133.42 108.519 131.576 108.519 129.652V126.026H79.5106V129.652C79.5106 131.576 78.7465 133.42 77.3865 134.78C76.0265 136.14 74.1819 136.904 72.2586 136.904H61.3806C59.4572 136.904 57.6126 136.14 56.2526 134.78C54.8926 133.42 54.1285 131.576 54.1285 129.652V64.3842C54.1285 60.5374 55.6566 56.8483 58.3767 54.1283C61.0967 51.4082 64.7859 49.8801 68.6326 49.8801H119.397C123.243 49.8801 126.933 51.4082 129.653 54.1283C132.373 56.8483 133.901 60.5374 133.901 64.3842ZM83.1366 102.457C83.1366 101.381 82.8176 100.33 82.22 99.4355C81.6223 98.541 80.7729 97.8439 79.779 97.4322C78.7852 97.0206 77.6916 96.9129 76.6365 97.1227C75.5814 97.3326 74.6123 97.8506 73.8516 98.6113C73.091 99.3719 72.5729 100.341 72.3631 101.396C72.1532 102.451 72.2609 103.545 72.6726 104.539C73.0843 105.532 73.7814 106.382 74.6758 106.98C75.5703 107.577 76.6219 107.896 77.6976 107.896C79.1401 107.896 80.5235 107.323 81.5435 106.303C82.5636 105.283 83.1366 103.9 83.1366 102.457ZM115.771 102.457C115.771 101.381 115.452 100.33 114.854 99.4355C114.256 98.541 113.407 97.8439 112.413 97.4322C111.419 97.0206 110.326 96.9129 109.271 97.1227C108.215 97.3326 107.246 97.8506 106.486 98.6113C105.725 99.3719 105.207 100.341 104.997 101.396C104.787 102.451 104.895 103.545 105.307 104.539C105.718 105.532 106.415 106.382 107.31 106.98C108.204 107.577 109.256 107.896 110.332 107.896C111.774 107.896 113.158 107.323 114.178 106.303C115.198 105.283 115.771 103.9 115.771 102.457ZM126.649 68.0102H61.3806V86.1402H126.649V68.0102Z" fill="#343330"/>
</svg>
