<svg width="188" height="188" viewBox="0 0 188 188" fill="none" xmlns="http://www.w3.org/2000/svg">
<circle cx="94.0152" cy="94.1766" r="93.3922" fill="white"/>
<path fill-rule="evenodd" clip-rule="evenodd" d="M136.69 83.7003H141.244C142.139 83.7003 142.997 84.0557 143.629 84.6884C144.262 85.321 144.617 86.1791 144.617 87.0738C144.617 87.9685 144.262 88.8265 143.629 89.4592C142.997 90.0918 142.139 90.4473 141.244 90.4473H137.87V124.182C137.87 125.971 137.16 127.688 135.894 128.953C134.629 130.218 132.913 130.929 131.123 130.929H121.003C119.214 130.929 117.497 130.218 116.232 128.953C114.967 127.688 114.256 125.971 114.256 124.182V117.435H73.7744V124.182C73.7744 125.971 73.0635 127.688 71.7982 128.953C70.5329 130.218 68.8168 130.929 67.0274 130.929H56.907C55.1176 130.929 53.4015 130.218 52.1362 128.953C50.8709 127.688 50.16 125.971 50.16 124.182V90.4473H46.7866C45.8919 90.4473 45.0338 90.0918 44.4012 89.4592C43.7685 88.8265 43.4131 87.9685 43.4131 87.0738C43.4131 86.1791 43.7685 85.321 44.4012 84.6884C45.0338 84.0557 45.8919 83.7003 46.7866 83.7003H51.3407L63.0551 57.3451C63.5853 56.1526 64.4498 55.1396 65.5441 54.4285C66.6383 53.7175 67.9152 53.3391 69.2202 53.3391H118.81C120.115 53.3391 121.392 53.7175 122.486 54.4285C123.581 55.1396 124.445 56.1526 124.975 57.3451L136.69 83.7003ZM67.0274 103.941H73.7744C74.6691 103.941 75.5271 103.586 76.1598 102.953C76.7924 102.32 77.1478 101.462 77.1478 100.568C77.1478 99.673 76.7924 98.8149 76.1598 98.1823C75.5271 97.5496 74.6691 97.1942 73.7744 97.1942H67.0274C66.1327 97.1942 65.2746 97.5496 64.642 98.1823C64.0093 98.8149 63.6539 99.673 63.6539 100.568C63.6539 101.462 64.0093 102.32 64.642 102.953C65.2746 103.586 66.1327 103.941 67.0274 103.941ZM111.871 102.953C112.503 103.586 113.361 103.941 114.256 103.941H121.003C121.898 103.941 122.756 103.586 123.388 102.953C124.021 102.32 124.376 101.462 124.376 100.568C124.376 99.673 124.021 98.8149 123.388 98.1823C122.756 97.5496 121.898 97.1942 121.003 97.1942H114.256C113.361 97.1942 112.503 97.5496 111.871 98.1823C111.238 98.8149 110.883 99.673 110.883 100.568C110.883 101.462 111.238 102.32 111.871 102.953ZM119.709 64.6819C119.268 63.6711 118.55 62.8123 117.64 62.2096C116.731 61.6068 115.67 61.286 114.585 61.286H73.3697C72.2852 61.286 71.2239 61.6068 70.3145 62.2096C69.405 62.8123 68.6865 63.6711 68.2459 64.6819L59.8386 84.0162L128.523 84.0163L119.709 64.6819Z" fill="#343330"/>
</svg>
