<svg width="188" height="187" viewBox="0 0 188 187" fill="none" xmlns="http://www.w3.org/2000/svg">
<circle cx="94.0152" cy="93.3922" r="93.3922" fill="white"/>
<path d="M119.216 46.5909H68.8145C64.9952 46.5909 61.3324 48.1081 58.6318 50.8087C55.9312 53.5093 54.4141 57.1721 54.4141 60.9913V118.593C54.4141 122.412 55.9312 126.075 58.6318 128.776C61.3324 131.476 64.9952 132.993 68.8145 132.993H72.4146L65.9344 141.634C65.6507 142.012 65.4443 142.442 65.327 142.9C65.2097 143.358 65.1837 143.835 65.2505 144.303C65.3174 144.771 65.4758 145.221 65.7167 145.628C65.9575 146.035 66.2762 146.39 66.6544 146.674C67.0326 146.957 67.463 147.164 67.921 147.281C68.379 147.398 68.8556 147.424 69.3236 147.357C69.7916 147.291 70.2419 147.132 70.6487 146.891C71.0555 146.65 71.4109 146.332 71.6945 145.954L81.4148 132.993H106.615L116.336 145.954C116.909 146.717 117.761 147.222 118.707 147.357C119.652 147.493 120.612 147.247 121.376 146.674C122.14 146.101 122.645 145.248 122.78 144.303C122.915 143.358 122.669 142.397 122.096 141.634L115.616 132.993H119.216C123.035 132.993 126.698 131.476 129.398 128.776C132.099 126.075 133.616 122.412 133.616 118.593V60.9913C133.616 57.1721 132.099 53.5093 129.398 50.8087C126.698 48.1081 123.035 46.5909 119.216 46.5909ZM74.2146 118.593C73.1466 118.593 72.1025 118.276 71.2144 117.683C70.3264 117.089 69.6342 116.246 69.2255 115.259C68.8168 114.273 68.7098 113.187 68.9182 112.139C69.1266 111.092 69.6409 110.129 70.3961 109.374C71.1513 108.619 72.1136 108.105 73.1611 107.896C74.2086 107.688 75.2944 107.795 76.2811 108.204C77.2679 108.612 78.1113 109.305 78.7047 110.193C79.298 111.081 79.6147 112.125 79.6147 113.193C79.6147 114.625 79.0458 115.999 78.0331 117.011C77.0204 118.024 75.6468 118.593 74.2146 118.593ZM90.415 89.7921H61.6143V71.7916H90.415V89.7921ZM113.816 118.593C112.748 118.593 111.704 118.276 110.816 117.683C109.927 117.089 109.235 116.246 108.827 115.259C108.418 114.273 108.311 113.187 108.519 112.139C108.728 111.092 109.242 110.129 109.997 109.374C110.752 108.619 111.715 108.105 112.762 107.896C113.81 107.688 114.895 107.795 115.882 108.204C116.869 108.612 117.712 109.305 118.306 110.193C118.899 111.081 119.216 112.125 119.216 113.193C119.216 114.625 118.647 115.999 117.634 117.011C116.621 118.024 115.248 118.593 113.816 118.593ZM126.416 89.7921H97.6152V71.7916H126.416V89.7921Z" fill="#343330"/>
</svg>
