<svg width="752" height="222" viewBox="0 0 752 222" fill="none" xmlns="http://www.w3.org/2000/svg">
<g clip-path="url(#clip0_81_1639)">
<path d="M97.5675 35.0104L11.8226 92.1712C5.01307 96.7178 0.913574 104.361 0.913574 112.556V197.48C0.913574 211.005 11.88 221.974 25.4072 221.974H196.886C210.413 221.974 221.379 211.005 221.379 197.48V112.556C221.379 104.361 217.28 96.7178 210.47 92.1712L124.737 35.0104C116.515 29.5315 105.789 29.5315 97.556 35.0104H97.5675Z" fill="#FF7B00" fill-opacity="0.25"/>
<path d="M52.5879 12.0702C52.5879 5.94662 47.6272 0.974121 41.5181 0.974121H5.83986C3.11835 0.974121 0.913574 3.18412 0.913574 5.91209V41.675C0.913574 47.7985 5.87431 52.771 11.9834 52.771C18.0924 52.771 23.0531 47.7985 23.0531 41.675V23.1777H41.5066C47.6157 23.1777 52.5764 18.2052 52.5764 12.0702H52.5879Z" fill="#FF7B00" fill-opacity="0.25"/>
<path d="M210.321 52.771C216.43 52.771 221.391 47.7985 221.391 41.675V5.91209C221.391 3.18412 219.186 0.974121 216.464 0.974121H180.786C174.677 0.974121 169.716 5.94662 169.716 12.0702C169.716 18.1937 174.677 23.1777 180.786 23.1777H199.24V41.675C199.24 47.7985 204.2 52.771 210.309 52.771H210.321Z" fill="#FF7B00" fill-opacity="0.25"/>
<path d="M154.214 88.4533C146.29 88.4533 139.86 95.0487 139.86 103.187V108.102L168.568 157.516V103.187C168.568 95.0487 162.137 88.4533 154.214 88.4533Z" fill="white"/>
<path d="M122.624 98.3868H122.601C122.601 98.3868 122.601 98.3638 122.601 98.3522C115.86 85.1498 97.1425 85.1498 90.4133 98.3522V98.3868H90.3904L46.1342 173.112C45.0548 175.23 44.538 177.509 44.5495 179.742V179.904C44.5495 187.88 50.9686 194.349 58.8805 194.349H106.651C114.562 194.349 120.982 187.88 120.982 179.904C120.982 171.927 114.562 165.469 106.651 165.469H84.5339L106.513 129.96L106.432 129.822C106.467 129.879 106.547 129.879 106.582 129.822L106.501 129.96L141.479 186.511C145.096 193.601 153.743 196.386 160.782 192.749C167.821 189.1 170.589 180.387 166.972 173.297L122.624 98.3868Z" fill="white"/>
<path d="M712.779 138.029V66.6295H608.179V39.0276H743.669V138.029H712.779ZM679.776 152.624H751.902V180.41H600.267V152.624H649.059V93.8862H679.776V152.624Z" fill="#111111" fill-opacity="0.1"/>
<path d="M553.611 35.5054H582.571V124.838H553.611V35.5054ZM467.441 102.68C459.896 114.812 448.838 122.731 434.45 123.779V97.581C444.624 94.7725 450.767 80.8794 452.18 61.8872H437.791V37.2665H487.984V61.8872H479.383C479.027 67.8611 478.155 73.6624 476.926 79.1183L489.741 94.4157C496.413 88.7871 500.616 77.0119 501.672 61.8872H493.6V37.2665H544.493V61.8872H528.876C528.52 67.159 527.819 72.4308 526.774 77.5299L553.094 106.202L534.663 122.029L517.462 101.978C509.917 114.467 498.687 122.731 483.942 123.779L467.441 102.68ZM446.909 155.617V130.109H582.571V187.443H552.382V155.617H446.909Z" fill="#111111" fill-opacity="0.1"/>
<path d="M388.482 35.5054H418.143V113.235H388.482V35.5054ZM327.759 91.0777C316 103.912 297.926 113.408 276.51 113.937V88.085C295.813 87.026 308.628 74.3645 312.131 61.7031H278.611V37.2665H375.483V61.7031H342.308C341.952 64.3505 341.252 66.9864 340.551 69.7949L380.57 90.3755L367.238 112.349L327.748 91.0777H327.759ZM389.01 128.36V118.507H418.143V185.682H284.066V118.507H313.199V128.36H389.01ZM313.187 162.12H388.999V151.392H313.187V162.12Z" fill="#111111" fill-opacity="0.1"/>
</g>
<defs>
<clipPath id="clip0_81_1639">
<rect width="751" height="221" fill="white" transform="translate(0.913574 0.974121)"/>
</clipPath>
</defs>
</svg>
