<svg width="104" height="103" viewBox="0 0 104 103" fill="none" xmlns="http://www.w3.org/2000/svg">
<g clip-path="url(#clip0_81_1718)">
<path d="M70.6551 51.5054C70.6551 48.9645 70.6551 46.4236 70.474 44.0641C68.8255 42.2492 67.1771 40.4342 65.3475 38.6193C63.5179 36.8044 61.6883 35.1709 59.8588 33.5375C57.4857 33.356 54.9135 33.356 52.3593 33.356C49.8051 33.356 47.414 33.356 44.8598 33.5375C43.0302 35.1709 41.2007 36.8044 39.3711 38.6193C37.5415 40.4342 35.8931 42.2492 34.2446 44.0641C34.0635 46.4236 34.0635 48.9645 34.0635 51.5054C34.0635 54.0463 34.0635 56.5873 34.2446 58.9467C35.8931 60.7617 37.5415 62.5766 39.3711 64.3915C41.2007 66.2065 43.0302 67.8399 44.8598 69.4734C47.2328 69.6549 49.8051 69.6549 52.3593 69.6549C54.9135 69.6549 57.3046 69.6549 59.8588 69.4734C61.6883 67.8399 63.5179 66.2065 65.3475 64.3915C67.1771 62.5766 68.8255 60.7617 70.474 58.9467C70.6551 56.5873 70.6551 54.0463 70.6551 51.5054ZM61.3261 47.8755V61.4876C61.3261 62.0321 60.7826 62.5766 60.2211 62.5766H44.1171C43.5737 62.5766 43.0121 62.0321 43.0121 61.4876V40.7972C43.0121 40.2528 43.5556 39.7083 44.1171 39.7083H60.2211C60.7645 39.7083 61.3261 40.2528 61.3261 40.7972V47.8755Z" fill="black"/>
<path d="M34.4258 62.5765C34.607 64.573 34.7881 66.5694 34.9693 68.5659C36.98 68.7474 38.9907 69.1103 41.0015 69.1103C39.8965 68.0214 38.6284 66.9324 37.5234 65.8434C36.6177 64.7545 35.5127 63.6655 34.4077 62.5765H34.4258Z" fill="black"/>
<path d="M69.5498 68.5659C69.731 66.5694 70.0932 64.573 70.0932 62.5765C68.9883 63.6655 67.9014 64.7545 66.7964 66.0249C65.6914 67.1139 64.6045 68.2029 63.3184 69.2918C65.5102 69.1103 67.521 68.9289 69.5317 68.5659H69.5498Z" fill="black"/>
<path d="M47.5947 71.8328C49.2432 73.1032 50.7104 74.3737 52.3589 75.6442C54.0073 74.3737 55.4746 73.1032 57.123 71.8328H47.6128H47.5947Z" fill="black"/>
<path d="M70.2924 40.4342C70.1113 38.4378 69.9301 36.4413 69.749 34.4449C67.7383 34.2634 65.7275 33.9004 63.7168 33.9004C64.8218 34.9894 66.0898 36.0783 67.1948 37.1673C68.1005 38.2563 69.2055 39.3452 70.3105 40.4342H70.2924Z" fill="black"/>
<path d="M35.1684 34.4449C34.9873 36.4413 34.625 38.4377 34.625 40.4342C35.73 39.3452 36.8169 38.2562 37.9219 36.9858C39.0269 35.7153 40.1137 34.8078 41.3999 33.7189C39.208 33.9004 37.1973 34.0819 35.1866 34.4449H35.1684Z" fill="black"/>
<path d="M57.123 31.178C55.4746 29.9075 54.0073 28.637 52.3589 27.3666C50.7104 28.637 49.2432 29.9075 47.5947 31.178H57.1049H57.123Z" fill="black"/>
<path d="M60.7827 31.3595C63.7172 31.541 66.4525 31.7225 69.206 32.0855C68.4814 27.1851 67.3764 22.4662 66.0903 18.2919C62.2499 20.2883 58.2285 22.8292 54.207 25.9146C56.3989 27.5481 58.5908 29.363 60.8008 31.3595H60.7827Z" fill="black"/>
<path d="M76.687 51.5054C75.4008 49.8719 74.1328 48.42 72.8467 46.7865V56.2242C74.1328 54.5908 75.4008 53.1388 76.687 51.5054Z" fill="black"/>
<path d="M71.9409 68.2029C76.8862 67.4769 81.6323 66.3879 85.6537 65.1175C83.643 61.3061 81.0888 57.3132 77.9731 53.3203C76.3247 55.4982 74.4951 57.6762 72.4844 59.8541C72.4844 62.758 72.3032 65.4805 71.9409 68.2029Z" fill="black"/>
<path d="M86.7587 35.7153C86.9398 35.3523 87.121 34.9893 87.3021 34.6263C91.5047 25.7331 91.867 18.6548 88.7694 15.3879C87.3021 13.9359 85.2914 13.21 82.5561 13.21C78.5346 13.21 73.7705 14.6619 68.2817 17.2028C69.749 21.9217 70.8359 27.0036 71.5786 32.4484C77.0674 33.1744 82.1938 34.2633 86.7587 35.7153Z" fill="black"/>
<path d="M58.935 55.8612H45.2222V60.3986H58.935V55.8612Z" fill="black"/>
<path d="M58.935 48.9645H45.2222V53.5018H58.935V48.9645Z" fill="black"/>
<path d="M71.941 34.8079C72.3033 37.5303 72.4844 40.4342 72.6656 43.1566C74.6763 45.3346 76.3247 47.5125 78.1543 49.6904C81.0889 45.6975 83.643 41.7047 85.8349 37.8933C81.6323 36.4413 76.8682 35.5338 71.9229 34.8079H71.941Z" fill="black"/>
<path d="M58.935 42.2491H45.2222V46.7865H58.935V42.2491Z" fill="black"/>
<path d="M52.3593 24.4627C55.6562 22.1032 58.7719 19.9253 62.0507 18.1104C63.1557 17.3844 64.4237 16.8399 65.5287 16.2954C65.3475 15.9324 65.1664 15.5694 65.1664 15.0249C61.6884 5.76872 57.1235 0.505371 52.5405 0.505371C47.9575 0.505371 43.3926 5.76872 39.9145 15.0249C39.7334 15.3879 39.5522 15.7509 39.5522 16.2954C40.6572 16.8399 41.7441 17.5659 43.0303 18.1104C45.9648 19.9253 49.0624 22.1032 52.3593 24.4627Z" fill="black"/>
<path d="M60.7822 71.6513C58.5903 73.4662 56.3985 75.2812 54.1885 77.0961C58.2099 80.1815 62.2314 82.7224 66.0717 84.7189C67.3578 80.5445 68.4447 76.0071 69.1874 70.9253C66.4521 71.2883 63.6987 71.4698 60.7641 71.6513H60.7822Z" fill="black"/>
<path d="M52.3593 78.5481C49.0624 80.9075 45.9648 83.0855 42.668 84.9004C41.563 85.6264 40.2949 86.1709 39.1899 86.7154C39.3711 87.0783 39.5522 87.4413 39.5522 87.9858C43.0303 97.242 47.5951 102.505 52.1782 102.505C56.7612 102.505 61.3261 97.242 64.8041 87.9858C64.9852 87.6228 65.1664 87.2598 65.1664 86.7154C64.0614 86.1709 62.9745 85.4449 61.6884 84.9004C58.7538 83.0855 55.6562 80.9075 52.3593 78.5481Z" fill="black"/>
<path d="M86.7587 67.2954C82.1938 68.7474 77.0674 69.8363 71.5786 70.5623C70.854 76.0072 69.749 81.089 68.2817 85.6264C73.7705 88.1673 78.5346 89.6193 82.5561 89.6193C85.3095 89.6193 87.3203 88.8933 88.7694 87.4413C92.0663 84.1744 91.5229 77.2776 87.3021 68.2029C87.121 68.0214 86.9398 67.6584 86.7587 67.2954Z" fill="black"/>
<path d="M43.936 31.3595C46.1278 29.5445 48.3197 27.7296 50.5297 25.9146C46.5082 22.8292 42.4868 20.2883 38.6465 18.2919C37.3603 22.4662 36.2735 27.0036 35.5308 32.0855C38.2661 31.7225 41.0195 31.541 43.9541 31.3595H43.936Z" fill="black"/>
<path d="M43.936 71.6513C41.0014 71.4698 38.2661 71.2883 35.5127 70.9253C36.2373 75.8256 37.3423 80.5445 38.6284 84.7189C42.4687 82.7224 46.4902 80.1815 50.5116 77.0961C48.3198 75.4627 46.1279 73.6477 43.9179 71.6513H43.936Z" fill="black"/>
<path d="M89.1318 38.9823C88.7695 38.8008 88.4072 38.6193 87.8457 38.6193C85.6538 42.7936 82.7192 47.1495 79.4224 51.6869C82.7192 56.0428 85.6357 60.3986 87.8457 64.7545C88.208 64.573 88.5703 64.3915 89.1318 64.3915C98.4609 60.9431 103.768 56.4057 103.768 51.8684C103.768 47.331 98.4609 42.4307 89.1318 38.9823Z" fill="black"/>
<path d="M19.0645 65.299C23.2671 66.5694 27.8501 67.6584 32.7773 68.3844C32.415 65.662 32.2338 62.7581 32.0527 60.0356C30.0419 57.8577 28.3935 55.6798 26.5639 53.5018C23.6293 57.3132 21.0752 61.3061 19.0645 65.299Z" fill="black"/>
<path d="M28.0312 51.5054C29.3174 53.1388 30.5854 54.5908 31.8716 56.2242V46.7865C30.5854 48.42 29.3174 49.8719 28.0312 51.5054Z" fill="black"/>
<path d="M17.9591 35.7153C22.524 34.2634 27.6505 33.1744 33.1392 32.4484C33.8638 27.0036 34.9688 21.9217 36.4361 17.3844C30.9474 14.8434 26.1832 13.3915 22.1617 13.3915C19.4083 13.3915 17.3976 14.1175 15.9484 15.5694C12.6515 18.8363 13.2131 25.7331 17.4157 34.8078C17.5968 34.9893 17.778 35.3523 17.9591 35.7153Z" fill="black"/>
<path d="M16.6913 64.573C18.8832 60.3986 21.8178 56.0427 25.1147 51.5054C21.8178 47.1495 18.9013 42.7936 16.6913 38.4377C16.3291 38.6192 15.9668 38.8007 15.4052 38.8007C6.07615 42.2491 0.768555 46.7865 0.768555 51.3239C0.768555 55.8612 6.07615 60.3986 15.4052 63.847C15.9486 64.21 16.3109 64.3915 16.6913 64.573Z" fill="black"/>
<path d="M17.9596 67.2954C17.7785 67.6584 17.5973 68.0214 17.4162 68.3844C13.2136 77.2776 12.8513 84.3559 15.9489 87.6228C17.4162 89.0748 19.4269 89.8008 22.1622 89.8008C26.1837 89.8008 30.9478 88.3488 36.4366 85.8079C34.9693 81.089 33.8824 76.0072 33.1397 70.5623C27.6509 69.8363 22.5245 68.7474 17.9596 67.2954Z" fill="black"/>
<path d="M19.0645 37.7118C21.0752 41.5231 23.6294 45.516 26.7451 49.5089C28.3936 47.331 30.2231 45.153 32.2339 42.9751C32.415 40.0712 32.5962 37.3488 32.9585 34.6263C27.832 35.5338 23.086 36.4413 19.0464 37.7118H19.0645Z" fill="black"/>
</g>
<defs>
<clipPath id="clip0_81_1718">
<rect width="103" height="102" fill="white" transform="translate(0.768555 0.505371)"/>
</clipPath>
</defs>
</svg>
