<svg width="127" height="110" viewBox="0 0 127 110" fill="none" xmlns="http://www.w3.org/2000/svg">
<path d="M1.67822 109.954H31.5077V92.6294H9.07651C8.36741 92.6294 7.63467 91.9364 7.63467 91.2434C7.63467 90.5504 8.34377 89.8575 9.07651 89.8575H31.5077V83.8516H1.67822V109.954Z" fill="white"/>
<path d="M97.1467 106.951H126.976V89.6264H104.545C103.836 89.6264 103.103 88.9335 103.103 88.2405C103.103 87.5475 103.812 86.8545 104.545 86.8545H126.976V81.0796H97.1467V106.951Z" fill="white"/>
<path d="M64.2209 78.0767C55.1444 78.0767 47.7461 85.2375 47.7461 94.0154C47.7461 102.793 55.1444 109.954 64.2209 109.954C73.2974 109.954 80.6957 102.793 80.6957 94.0154C80.6957 85.2375 73.2974 78.0767 64.2209 78.0767Z" fill="white"/>
<path d="M16.4748 40.6553C7.39829 40.6553 0 47.8161 0 56.594C0 65.3718 7.39829 72.3017 16.4748 72.3017C25.5513 72.3017 32.9496 65.1409 32.9496 56.363C32.9496 47.5852 25.5513 40.6553 16.4748 40.6553Z" fill="white"/>
<path d="M31.5077 11.7808H9.07651C8.36741 11.7808 7.63467 11.0878 7.63467 10.3948C7.63467 9.70182 8.34377 9.00883 9.07651 9.00883H31.5077V3.00293H1.67822V29.1055H31.5077V11.7808Z" fill="white"/>
<path d="M79.2539 40.6553H49.4244V46.4302H71.8556C72.5647 46.4302 73.2974 47.1232 73.2974 47.8162C73.2974 48.5091 72.5883 49.2021 71.6192 49.2021H49.188V66.5268H79.0175V40.6553H79.2539Z" fill="white"/>
<path d="M110.525 31.8775C119.602 31.8775 127 24.7166 127 15.9387C127 7.16088 119.602 0 110.525 0C101.449 0 94.0505 7.16088 94.0505 15.9387C94.0505 24.7166 101.449 31.8775 110.525 31.8775Z" fill="white"/>
<path d="M97.1467 69.5298H126.976V52.2051H104.545C103.836 52.2051 103.103 51.5121 103.103 50.8191C103.103 50.1261 103.812 49.4331 104.545 49.4331H126.976V43.6582H97.1467V69.5298Z" fill="white"/>
<path d="M79.2538 3.00293H49.4243V8.77783H71.8555C72.5646 8.77783 73.2974 9.47082 73.2974 10.1638C73.2974 10.8568 72.5883 11.5498 71.8555 11.5498H49.4243V28.8745H79.2538V3.00293Z" fill="white"/>
</svg>
