<svg width="208" height="205" viewBox="0 0 208 205" fill="none" xmlns="http://www.w3.org/2000/svg">
<path d="M108.123 136.515C129.269 136.515 146.411 119.339 146.411 98.151C146.411 76.9633 129.269 59.7873 108.123 59.7873C86.9775 59.7873 69.8354 76.9633 69.8354 98.151C69.8354 119.339 86.9775 136.515 108.123 136.515Z" fill="#0059FF" fill-opacity="0.1"/>
<path d="M205.786 86.1732H193.381C188.137 46.9055 156.616 15.8868 117.144 11.4797V0.518683C117.144 -4.79235 112.802 -9.14288 107.501 -9.14288C102.201 -9.14288 97.859 -4.79235 97.859 0.518683V11.4797C58.387 15.8868 26.8659 46.9055 21.6218 86.1732H10.4568C5.15632 86.1732 0.814453 90.5237 0.814453 95.8348C0.814453 101.146 5.15632 105.496 10.4568 105.496H21.1706C24.8359 146.572 57.09 179.512 97.8025 184.032V195.275C97.8025 200.586 102.145 204.937 107.445 204.937C112.746 204.937 117.087 200.586 117.087 195.275V184.032C157.8 179.512 190.111 146.572 193.719 105.496H205.73C211.031 105.496 215.373 101.146 215.373 95.8348C215.373 90.5237 211.031 86.1732 205.73 86.1732H205.786ZM117.144 164.596C113.986 165.048 110.772 165.274 107.501 165.274C104.231 165.274 101.017 165.048 97.859 164.596C67.7475 160.245 44.0643 135.95 40.5683 105.553C40.2863 103.01 40.1172 100.411 40.1172 97.8123C40.1172 93.8573 40.4555 90.0152 41.1322 86.2297C46.0944 57.6405 69.0445 35.1534 97.859 30.9724C101.017 30.5204 104.231 30.2944 107.501 30.2944C110.772 30.2944 113.986 30.5204 117.144 30.9724C145.958 35.1534 168.909 57.584 173.871 86.2297C174.547 90.0152 174.886 93.8573 174.886 97.8123C174.886 100.411 174.716 103.01 174.434 105.553C170.938 135.95 147.255 160.302 117.144 164.596Z" fill="#0059FF" fill-opacity="0.1"/>
</svg>
