<svg width="128" height="113" viewBox="0 0 128 113" fill="none" xmlns="http://www.w3.org/2000/svg">
<g clip-path="url(#clip0_81_1705)">
<path d="M1.88916 112.044H31.7187V94.3971H9.28745C8.57835 94.3971 7.84561 93.6912 7.84561 92.9853C7.84561 92.2795 8.55471 91.5736 9.28745 91.5736H31.7187V85.4559H1.88916V112.044Z" fill="black"/>
<path d="M97.3579 108.985H127.187V91.3383H104.756C104.047 91.3383 103.314 90.6325 103.314 89.9266C103.314 89.2207 104.023 88.5148 104.756 88.5148H127.187V82.6324H97.3579V108.985Z" fill="black"/>
<path d="M64.4318 79.5736C55.3553 79.5736 47.957 86.8677 47.957 95.8089C47.957 104.75 55.3553 112.044 64.4318 112.044C73.5083 112.044 80.9066 104.75 80.9066 95.8089C80.9066 86.8677 73.5083 79.5736 64.4318 79.5736Z" fill="black"/>
<path d="M16.6857 41.4559C7.60923 41.4559 0.210938 48.75 0.210938 57.6912C0.210938 66.6324 7.60923 73.6912 16.6857 73.6912C25.7622 73.6912 33.1605 66.3971 33.1605 57.4559C33.1605 48.5148 25.7622 41.4559 16.6857 41.4559Z" fill="black"/>
<path d="M31.7187 12.0442H9.28745C8.57835 12.0442 7.84561 11.3383 7.84561 10.6324C7.84561 9.92656 8.55471 9.22067 9.28745 9.22067H31.7187V3.10303H1.88916V29.6913H31.7187V12.0442Z" fill="black"/>
<path d="M79.4648 41.4559H49.6353V47.3383H72.0665C72.7756 47.3383 73.5084 48.0442 73.5084 48.7501C73.5084 49.4559 72.7993 50.1618 71.8302 50.1618H49.3989V67.8089H79.2284V41.4559H79.4648Z" fill="black"/>
<path d="M110.736 32.5148C119.812 32.5148 127.211 25.2207 127.211 16.2795C127.211 7.33831 119.812 0.0441895 110.736 0.0441895C101.66 0.0441895 94.2612 7.33831 94.2612 16.2795C94.2612 25.2207 101.66 32.5148 110.736 32.5148Z" fill="black"/>
<path d="M97.3579 70.8677H127.187V53.2207H104.756C104.047 53.2207 103.314 52.5148 103.314 51.8089C103.314 51.103 104.023 50.3971 104.756 50.3971H127.187V44.5148H97.3579V70.8677Z" fill="black"/>
<path d="M79.4648 3.10303H49.6353V8.98538H72.0665C72.7756 8.98538 73.5083 9.69126 73.5083 10.3971C73.5083 11.103 72.7992 11.8089 72.0665 11.8089H49.6353V29.456H79.4648V3.10303Z" fill="black"/>
</g>
<defs>
<clipPath id="clip0_81_1705">
<rect width="127" height="112" fill="white" transform="translate(0.210938 0.0441895)"/>
</clipPath>
</defs>
</svg>
