<svg width="114" height="112" viewBox="0 0 114 112" fill="none" xmlns="http://www.w3.org/2000/svg">
<g clip-path="url(#clip0_244_11111)">
<path d="M105.514 53.2056H62.7981V112H113.637V61.0299L105.492 53.2056H105.514ZM95.3555 103.505H72.7555C72.0842 103.505 71.3906 102.834 71.3906 102.164C71.3906 101.493 72.0619 100.822 72.7555 100.822H95.3555C96.0268 100.822 96.7205 101.493 96.7205 102.164C96.7205 102.834 96.0492 103.505 95.3555 103.505ZM95.3555 95.01H72.7555C72.0842 95.01 71.3906 94.3393 71.3906 93.6686C71.3906 92.998 72.0619 92.3273 72.7555 92.3273H95.3555C96.0268 92.3273 96.7205 92.998 96.7205 93.6686C96.7205 94.3393 96.0492 95.01 95.3555 95.01ZM95.3555 86.7385H72.7555C72.0842 86.7385 71.3906 86.0678 71.3906 85.3972C71.3906 84.7265 71.8381 83.8323 72.7555 83.8323H95.3555C96.0268 83.8323 96.7205 84.503 96.7205 85.1736C96.7205 85.8443 96.0492 86.7385 95.3555 86.7385ZM95.3555 78.2435H72.7555C72.0842 78.2435 71.3906 77.5728 71.3906 76.9022C71.3906 76.2315 72.0619 75.5609 72.7555 75.5609H95.3555C96.0268 75.5609 96.7205 76.2315 96.7205 76.9022C96.7205 77.5728 96.0492 78.2435 95.3555 78.2435ZM104.843 103.058C104.619 103.281 104.172 103.505 103.948 103.505C103.5 103.505 103.277 103.281 103.053 103.058C102.829 102.834 102.605 102.387 102.605 102.164C102.605 101.717 102.829 101.493 103.053 101.269C103.277 101.046 103.724 100.822 103.948 100.822C104.396 100.822 104.619 101.046 104.843 101.269C105.067 101.493 105.291 101.94 105.291 102.164C105.291 102.387 105.067 102.611 104.843 103.058ZM104.843 94.5629C104.619 94.7864 104.172 95.01 103.948 95.01C103.5 95.01 103.277 94.7864 103.053 94.5629C102.829 94.3393 102.605 93.8922 102.605 93.6686C102.605 93.2215 102.829 92.998 103.053 92.7744C103.277 92.5509 103.724 92.3273 103.948 92.3273C104.396 92.3273 104.619 92.5509 104.843 92.7744C105.067 92.998 105.291 93.4451 105.291 93.6686C105.291 93.8922 105.067 94.3393 104.843 94.5629ZM104.843 86.2914C104.619 86.5149 104.172 86.7385 103.948 86.7385C103.5 86.7385 103.277 86.5149 103.053 86.2914C102.829 86.0678 102.605 85.6207 102.605 85.3972C102.605 84.9501 102.829 84.7265 103.053 84.503C103.277 84.2794 103.724 84.0559 103.948 84.0559C104.396 84.0559 104.619 84.2794 104.843 84.503C105.067 84.7265 105.291 85.1736 105.291 85.3972C105.291 85.6207 105.067 86.0678 104.843 86.2914ZM104.843 77.7964C104.619 78.0199 104.172 78.2435 103.948 78.2435C103.5 78.2435 103.277 78.0199 103.053 77.7964C102.829 77.5728 102.605 77.1257 102.605 76.9022C102.605 76.4551 102.829 76.2315 103.053 76.008C103.277 75.7844 103.724 75.5609 103.948 75.5609C104.396 75.5609 104.619 75.7844 104.843 76.008C105.067 76.2315 105.291 76.6786 105.291 76.9022C105.291 77.1257 105.067 77.5728 104.843 77.7964Z" fill="white"/>
<path d="M0.65918 0V58.7944H51.498V8.0479L43.353 0H0.65918ZM33.1942 50.2994H10.5942C9.92294 50.2994 9.22928 49.6287 9.22928 48.9581C9.22928 48.2874 9.90057 47.6168 10.5942 47.6168H33.1942C33.8655 47.6168 34.5592 48.2874 34.5592 48.9581C34.5592 49.6287 33.8879 50.2994 33.1942 50.2994ZM33.1942 42.0279H10.5942C9.92294 42.0279 9.22928 41.3573 9.22928 40.6866C9.22928 40.016 9.90057 39.3453 10.5942 39.3453H33.1942C33.8655 39.3453 34.5592 40.016 34.5592 40.6866C34.5592 41.3573 33.8879 42.0279 33.1942 42.0279ZM33.1942 33.5329H10.5942C9.92294 33.5329 9.22928 32.8623 9.22928 32.1916C9.22928 31.521 9.90057 30.8503 10.5942 30.8503H33.1942C33.8655 30.8503 34.5592 31.521 34.5592 32.1916C34.5592 32.8623 33.8879 33.5329 33.1942 33.5329ZM33.1942 25.2615H10.5942C9.92294 25.2615 9.22928 24.5908 9.22928 23.9202C9.22928 23.2495 9.90057 22.5788 10.5942 22.5788H33.1942C33.8655 22.5788 34.5592 23.2495 34.5592 23.9202C34.5592 24.5908 33.8879 25.2615 33.1942 25.2615ZM42.6818 49.8523C42.458 50.0758 42.0105 50.2994 41.7867 50.2994C41.3392 50.2994 41.1154 50.0758 40.8917 49.8523C40.6679 49.6287 40.4441 49.1816 40.4441 48.9581C40.4441 48.7345 40.6679 48.2874 40.8917 48.0639C41.1154 47.8403 41.5629 47.6168 41.7867 47.6168C42.0105 47.6168 42.458 47.8403 42.6818 48.0639C42.9055 48.2874 43.1293 48.7345 43.1293 48.9581C43.1293 49.1816 42.9055 49.6287 42.6818 49.8523ZM42.6818 41.5808C42.458 41.8044 42.0105 42.0279 41.7867 42.0279C41.5629 42.0279 41.1154 41.8044 40.8917 41.5808C40.4441 41.3573 40.2204 40.9102 40.2204 40.4631C40.2204 40.016 40.4441 39.7924 40.6679 39.5689C40.8917 39.3453 41.3392 39.1218 41.5629 39.1218C41.7867 39.1218 42.2342 39.3453 42.458 39.5689C42.6818 39.7924 42.9055 40.2395 42.9055 40.4631C42.9055 40.6866 42.9055 41.3573 42.6818 41.5808ZM42.6818 33.0858C42.458 33.3094 42.0105 33.5329 41.7867 33.5329C41.5629 33.5329 41.1154 33.3094 40.8917 33.0858C40.4441 32.8623 40.2204 32.4152 40.2204 32.1916C40.2204 31.9681 40.4441 31.521 40.6679 31.2974C40.8917 31.0739 41.3392 30.8503 41.5629 30.8503C41.7867 30.8503 42.2342 31.0739 42.458 31.2974C42.6818 31.521 42.9055 31.9681 42.9055 32.1916C42.9055 32.4152 42.9055 32.8623 42.6818 33.0858ZM42.6818 24.8144C42.458 25.0379 42.0105 25.2615 41.7867 25.2615C41.5629 25.2615 41.1154 25.0379 40.8917 24.8144C40.6679 24.5908 40.4441 24.1437 40.4441 23.9202C40.4441 23.6966 40.6679 23.2495 40.8917 23.0259C41.1154 22.8024 41.5629 22.5788 41.7867 22.5788C42.0105 22.5788 42.458 22.8024 42.6818 23.0259C42.9055 23.2495 43.1293 23.6966 43.1293 23.9202C43.1293 24.1437 42.9055 24.5908 42.6818 24.8144Z" fill="white"/>
<path d="M62.7981 12.9661V13.1896L65.7294 18.7784C65.9531 19.2255 66.4007 19.4491 67.0943 19.4491C67.3181 19.4491 67.5419 19.4491 67.7656 19.2255C68.4369 18.7784 68.6607 18.1078 68.4369 17.4371L66.6244 13.8603H88.3294V40.4631C88.3294 41.1337 89.0007 41.8044 89.6943 41.8044C90.388 41.8044 91.0593 41.1337 91.0593 40.4631V12.5189C91.0593 11.8483 90.388 11.1776 89.6943 11.1776H66.423L68.2355 7.60078C68.683 6.93012 68.2355 6.03591 67.5642 5.81236C66.8929 5.36525 65.9755 5.81236 65.7518 6.48302L62.8205 12.0718V12.2954V12.5189V12.9661C62.8205 12.817 62.8205 12.817 62.8205 12.9661H62.7981Z" fill="white"/>
<path d="M50.1554 95.01H23.2591V73.5489L26.8841 75.3373C27.1079 75.3373 27.3316 75.5609 27.5554 75.5609C28.0029 75.5609 28.6966 75.3373 28.9203 74.8902C29.3679 74.2196 28.9203 73.3254 28.249 73.1018L22.6102 70.1956H21.4914L15.8526 73.1018C15.1813 73.5489 14.9576 74.2196 15.1813 74.8902C15.6288 75.5609 16.3001 75.7844 16.9938 75.5609L20.6187 73.7725V96.5749C20.6187 97.2455 21.29 97.9162 21.9837 97.9162H50.2225C50.8938 97.9162 51.5875 97.2455 51.5875 96.5749C51.5875 95.9042 50.9162 95.01 50.2225 95.01H50.1554Z" fill="white"/>
</g>
<defs>
<clipPath id="clip0_244_11111">
<rect width="113" height="112" fill="white" transform="translate(0.65918)"/>
</clipPath>
</defs>
</svg>
