<svg width="794" height="108" viewBox="0 0 794 108" fill="none" xmlns="http://www.w3.org/2000/svg">
<g clip-path="url(#clip0_81_1625)">
<path d="M71.8783 1.21252V73.2125C71.8783 84.3643 68.7278 92.9374 62.444 98.9659C56.1603 104.994 47.6677 108 37.0007 108C26.3337 108 16.8652 104.841 10.1191 98.5048C3.37304 92.186 0 83.186 0 71.5389H25.6659C25.6659 75.9621 26.5734 79.2922 28.3883 81.5636C30.2033 83.8178 32.8229 84.945 36.2473 84.945C39.3636 84.945 41.7778 83.9374 43.49 81.9393C45.2022 79.9241 46.0583 77.0209 46.0583 73.1955V1.21252H71.8783Z" fill="black" fill-opacity="0.1"/>
<path d="M155.691 88.2581H116.122L109.77 106.941H82.7339L121.104 1.21252H150.999L189.353 106.941H162.026L155.691 88.2581ZM149.048 68.3795L135.915 29.6641L122.936 68.3795H149.065H149.048Z" fill="black" fill-opacity="0.1"/>
<path d="M292.804 106.941H266.984L223.802 41.7211V106.941H197.982V1.21252H223.802L266.984 66.74V1.21252H292.804V106.941Z" fill="black" fill-opacity="0.1"/>
<path d="M378.876 34.6338C376.959 31.1158 374.219 28.4345 370.641 26.5731C367.062 24.7116 362.867 23.7894 358.039 23.7894C349.683 23.7894 342.989 26.5218 337.955 32.0038C332.921 37.4858 330.404 44.778 330.404 53.9146C330.404 63.649 333.041 71.2657 338.331 76.7306C343.622 82.2125 350.882 84.945 360.145 84.945C366.48 84.945 371.856 83.3397 376.222 80.129C380.589 76.9184 383.79 72.2903 385.811 66.279H353.039V47.3055H409.217V71.2486C407.299 77.6698 404.063 83.6471 399.474 89.1803C394.885 94.6964 389.081 99.1708 382.027 102.586C374.973 106.002 367.028 107.71 358.176 107.71C347.697 107.71 338.366 105.421 330.164 100.861C321.963 96.3017 315.559 89.9488 310.988 81.8027C306.416 73.6736 304.122 64.3833 304.122 53.9317C304.122 43.4801 306.416 34.1727 310.988 25.9924C315.559 17.8122 321.946 11.4421 330.096 6.86529C338.246 2.30551 347.56 0.0170898 358.039 0.0170898C370.726 0.0170898 381.41 3.07402 390.126 9.20494C398.824 15.3359 404.594 23.8235 407.419 34.6679H378.876V34.6338Z" fill="black" fill-opacity="0.1"/>
<path d="M487.002 1.21252V73.2125C487.002 84.3643 483.851 92.9374 477.568 98.9659C471.267 104.994 462.791 108 452.124 108C441.457 108 431.989 104.841 425.243 98.5048C418.497 92.1689 415.124 83.186 415.124 71.5389H440.789C440.789 75.9621 441.697 79.2922 443.512 81.5636C445.327 83.8178 447.946 84.945 451.371 84.945C454.487 84.945 456.901 83.9374 458.614 81.9393C460.326 79.9241 461.182 77.0209 461.182 73.1955V1.21252H487.002Z" fill="black" fill-opacity="0.1"/>
<path d="M530.646 21.8425V43.2239H565.233V63.1025H530.646V86.2941H569.753V106.924H504.809V1.21252H569.753V21.8425H530.646Z" fill="black" fill-opacity="0.1"/>
<path d="M794 106.941H768.18L724.998 41.7211V106.941H699.178V1.21252H724.998L768.18 66.74V1.21252H794V106.941Z" fill="black" fill-opacity="0.1"/>
<path d="M633.412 0.307434C603.757 0.307434 579.735 24.2847 579.735 53.8463C579.735 83.408 603.774 107.385 633.412 107.385C663.051 107.385 687.09 83.408 687.09 53.8463C687.09 24.2847 663.051 0.307434 633.412 0.307434ZM633.412 92.7496C611.873 92.7496 594.426 75.3302 594.426 53.8634C594.426 32.3966 611.89 14.9773 633.412 14.9773C654.935 14.9773 672.399 32.3966 672.399 53.8634C672.399 75.3302 654.935 92.7496 633.412 92.7496Z" fill="#EB0F29" fill-opacity="0.1"/>
<path d="M633.412 40.2695C625.896 40.2695 619.8 46.3492 619.8 53.8463C619.8 61.3435 625.896 67.4232 633.412 67.4232C640.929 67.4232 647.024 61.3435 647.024 53.8463C647.024 46.3492 640.929 40.2695 633.412 40.2695Z" fill="#EB0F29" fill-opacity="0.1"/>
</g>
<defs>
<clipPath id="clip0_81_1625">
<rect width="794" height="108" fill="white"/>
</clipPath>
</defs>
</svg>
