<svg width="113" height="113" viewBox="0 0 113 113" fill="none" xmlns="http://www.w3.org/2000/svg">
<g clip-path="url(#clip0_81_1698)">
<path d="M104.855 53.3335H62.1387V112.128H112.977V61.1578L104.833 53.3335H104.855ZM94.6961 103.633H72.0961C71.4248 103.633 70.7311 102.962 70.7311 102.292C70.7311 101.621 71.4024 100.95 72.0961 100.95H94.6961C95.3674 100.95 96.061 101.621 96.061 102.292C96.061 102.962 95.3898 103.633 94.6961 103.633ZM94.6961 95.1379H72.0961C71.4248 95.1379 70.7311 94.4672 70.7311 93.7966C70.7311 93.1259 71.4024 92.4553 72.0961 92.4553H94.6961C95.3674 92.4553 96.061 93.1259 96.061 93.7966C96.061 94.4672 95.3898 95.1379 94.6961 95.1379ZM94.6961 86.8664H72.0961C71.4248 86.8664 70.7311 86.1958 70.7311 85.5251C70.7311 84.8545 71.1787 83.9602 72.0961 83.9602H94.6961C95.3674 83.9602 96.061 84.6309 96.061 85.3016C96.061 85.9722 95.3898 86.8664 94.6961 86.8664ZM94.6961 78.3714H72.0961C71.4248 78.3714 70.7311 77.7008 70.7311 77.0301C70.7311 76.3594 71.4024 75.6888 72.0961 75.6888H94.6961C95.3674 75.6888 96.061 76.3594 96.061 77.0301C96.061 77.7008 95.3898 78.3714 94.6961 78.3714ZM104.184 103.186C103.96 103.409 103.512 103.633 103.289 103.633C102.841 103.633 102.617 103.409 102.394 103.186C102.17 102.962 101.946 102.515 101.946 102.292C101.946 101.844 102.17 101.621 102.394 101.397C102.617 101.174 103.065 100.95 103.289 100.95C103.736 100.95 103.96 101.174 104.184 101.397C104.407 101.621 104.631 102.068 104.631 102.292C104.631 102.515 104.407 102.739 104.184 103.186ZM104.184 94.6908C103.96 94.9143 103.512 95.1379 103.289 95.1379C102.841 95.1379 102.617 94.9143 102.394 94.6908C102.17 94.4672 101.946 94.0201 101.946 93.7966C101.946 93.3495 102.17 93.1259 102.394 92.9024C102.617 92.6788 103.065 92.4553 103.289 92.4553C103.736 92.4553 103.96 92.6788 104.184 92.9024C104.407 93.1259 104.631 93.573 104.631 93.7966C104.631 94.0201 104.407 94.4672 104.184 94.6908ZM104.184 86.4193C103.96 86.6429 103.512 86.8664 103.289 86.8664C102.841 86.8664 102.617 86.6429 102.394 86.4193C102.17 86.1958 101.946 85.7487 101.946 85.5251C101.946 85.078 102.17 84.8545 102.394 84.6309C102.617 84.4073 103.065 84.1838 103.289 84.1838C103.736 84.1838 103.96 84.4073 104.184 84.6309C104.407 84.8545 104.631 85.3016 104.631 85.5251C104.631 85.7487 104.407 86.1958 104.184 86.4193ZM104.184 77.9243C103.96 78.1479 103.512 78.3714 103.289 78.3714C102.841 78.3714 102.617 78.1479 102.394 77.9243C102.17 77.7008 101.946 77.2537 101.946 77.0301C101.946 76.583 102.17 76.3594 102.394 76.1359C102.617 75.9123 103.065 75.6888 103.289 75.6888C103.736 75.6888 103.96 75.9123 104.184 76.1359C104.407 76.3594 104.631 76.8066 104.631 77.0301C104.631 77.2537 104.407 77.7008 104.184 77.9243Z" fill="black"/>
<path d="M0 0.12793V58.9223H50.8388V8.17583L42.6939 0.12793H0ZM32.535 50.4273H9.93505C9.26376 50.4273 8.5701 49.7567 8.5701 49.086C8.5701 48.4154 9.24139 47.7447 9.93505 47.7447H32.535C33.2063 47.7447 33.9 48.4154 33.9 49.086C33.9 49.7567 33.2287 50.4273 32.535 50.4273ZM32.535 42.1559H9.93505C9.26376 42.1559 8.5701 41.4852 8.5701 40.8146C8.5701 40.1439 9.24139 39.4732 9.93505 39.4732H32.535C33.2063 39.4732 33.9 40.1439 33.9 40.8146C33.9 41.4852 33.2287 42.1559 32.535 42.1559ZM32.535 33.6609H9.93505C9.26376 33.6609 8.5701 32.9902 8.5701 32.3195C8.5701 31.6489 9.24139 30.9782 9.93505 30.9782H32.535C33.2063 30.9782 33.9 31.6489 33.9 32.3195C33.9 32.9902 33.2287 33.6609 32.535 33.6609ZM32.535 25.3894H9.93505C9.26376 25.3894 8.5701 24.7187 8.5701 24.0481C8.5701 23.3774 9.24139 22.7068 9.93505 22.7068H32.535C33.2063 22.7068 33.9 23.3774 33.9 24.0481C33.9 24.7187 33.2287 25.3894 32.535 25.3894ZM42.0226 49.9802C41.7988 50.2038 41.3513 50.4273 41.1275 50.4273C40.68 50.4273 40.4562 50.2038 40.2325 49.9802C40.0087 49.7567 39.785 49.3096 39.785 49.086C39.785 48.8625 40.0087 48.4154 40.2325 48.1918C40.4562 47.9683 40.9038 47.7447 41.1275 47.7447C41.3513 47.7447 41.7988 47.9683 42.0226 48.1918C42.2463 48.4154 42.4701 48.8625 42.4701 49.086C42.4701 49.3096 42.2463 49.7567 42.0226 49.9802ZM42.0226 41.7088C41.7988 41.9323 41.3513 42.1559 41.1275 42.1559C40.9038 42.1559 40.4562 41.9323 40.2325 41.7088C39.7849 41.4852 39.5612 41.0381 39.5612 40.591C39.5612 40.1439 39.7849 39.9203 40.0087 39.6968C40.2325 39.4732 40.68 39.2497 40.9038 39.2497C41.1275 39.2497 41.5751 39.4732 41.7988 39.6968C42.0226 39.9203 42.2463 40.3675 42.2463 40.591C42.2463 40.8146 42.2463 41.4852 42.0226 41.7088ZM42.0226 33.2138C41.7988 33.4373 41.3513 33.6609 41.1275 33.6609C40.9038 33.6609 40.4562 33.4373 40.2325 33.2138C39.7849 32.9902 39.5612 32.5431 39.5612 32.3195C39.5612 32.096 39.7849 31.6489 40.0087 31.4253C40.2325 31.2018 40.68 30.9782 40.9038 30.9782C41.1275 30.9782 41.5751 31.2018 41.7988 31.4253C42.0226 31.6489 42.2463 32.096 42.2463 32.3195C42.2463 32.5431 42.2463 32.9902 42.0226 33.2138ZM42.0226 24.9423C41.7988 25.1659 41.3513 25.3894 41.1275 25.3894C40.9038 25.3894 40.4562 25.1659 40.2325 24.9423C40.0087 24.7187 39.785 24.2716 39.785 24.0481C39.785 23.8245 40.0087 23.3774 40.2325 23.1539C40.4562 22.9303 40.9038 22.7068 41.1275 22.7068C41.3513 22.7068 41.7988 22.9303 42.0226 23.1539C42.2463 23.3774 42.4701 23.8245 42.4701 24.0481C42.4701 24.2716 42.2463 24.7187 42.0226 24.9423Z" fill="black"/>
<path d="M62.1387 13.094V13.3176L65.07 18.9064C65.2937 19.3535 65.7412 19.5771 66.4349 19.5771C66.6587 19.5771 66.8824 19.5771 67.1062 19.3535C67.7775 18.9064 68.0012 18.2358 67.7775 17.5651L65.965 13.9883H87.67V40.591C87.67 41.2617 88.3412 41.9324 89.0349 41.9324C89.7286 41.9324 90.3999 41.2617 90.3999 40.591V12.6469C90.3999 11.9763 89.7286 11.3056 89.0349 11.3056H65.7636L67.5761 7.72877C68.0236 7.05811 67.5761 6.1639 66.9048 5.94035C66.2335 5.49324 65.3161 5.94035 65.0923 6.61101L62.161 12.1998V12.4234V12.6469V13.094C62.161 12.945 62.161 12.945 62.161 13.094H62.1387Z" fill="black"/>
<path d="M49.4964 95.1379H22.6002V73.6768L26.2252 75.4652C26.4489 75.4652 26.6727 75.6888 26.8964 75.6888C27.344 75.6888 28.0376 75.4652 28.2614 75.0181C28.7089 74.3474 28.2614 73.4532 27.5901 73.2297L21.9513 70.3235H20.8325L15.1937 73.2297C14.5224 73.6768 14.2986 74.3474 14.5224 75.0181C14.9699 75.6888 15.6412 75.9123 16.3349 75.6888L19.9598 73.9003V96.7027C19.9598 97.3734 20.6311 98.044 21.3248 98.044H49.5636C50.2349 98.044 50.9285 97.3734 50.9285 96.7027C50.9285 96.0321 50.2572 95.1379 49.5636 95.1379H49.4964Z" fill="black"/>
</g>
<defs>
<clipPath id="clip0_81_1698">
<rect width="113" height="112" fill="white" transform="translate(0 0.12793)"/>
</clipPath>
</defs>
</svg>
