<svg width="1440" height="328" viewBox="0 0 1440 328" fill="none" xmlns="http://www.w3.org/2000/svg">
<g clip-path="url(#clip0_73_380)">
<path opacity="0.5" d="M156.255 2.03101H59.0033C31.61 2.03101 9.37506 24.1441 9.23633 51.5426H106.475C133.868 51.5426 156.116 73.6557 156.116 101.054V2.03101H156.255Z" fill="#171717"/>
<path opacity="0.5" d="M9.23633 51.6813V150.566H106.878C134.133 150.566 156.242 128.453 156.242 101.193V101.054H58.5997C31.3452 101.054 9.23633 78.941 9.23633 51.6813Z" fill="#171717"/>
<path d="M58.5997 101.054H156.242C156.242 73.6556 133.868 51.5425 106.601 51.5425H9.23633V51.6812C9.23633 78.941 31.3452 101.054 58.5997 101.054Z" fill="#161616"/>
<path d="M233.415 2.03101H176.724V45.576H233.415V2.03101Z" fill="#161616"/>
<path opacity="0.5" d="M233.415 104.99H176.724V150.566H233.415V104.99Z" fill="#171717"/>
<path opacity="0.5" d="M233.415 45.5759H176.724V62.126H233.415V45.5759Z" fill="#171717"/>
<path opacity="0.5" d="M323.616 2.03101H233.427V45.576H323.616V2.03101Z" fill="#171717"/>
<path d="M233.692 62.126H177.001V104.99H233.692V62.126Z" fill="#161616"/>
<path opacity="0.5" d="M290.118 62.126H233.427V104.99H290.118V62.126Z" fill="#171717"/>
<path opacity="0.5" d="M466.157 128.591C479.576 141.483 497.762 149.481 517.828 149.481C539.395 149.481 558.779 140.26 572.35 125.741L520.678 74.0593L466.157 128.591Z" fill="#171717"/>
<path opacity="0.5" d="M517.815 0.138839C498.153 0.138839 480.244 7.87148 466.964 20.221L520.666 73.9332L571.656 22.9331C558.098 8.83017 538.978 0.0126953 517.954 0.0126953L517.815 0.151454V0.138839Z" fill="#171717"/>
<path d="M466.964 20.347C452.309 33.9075 443.228 53.3085 443.228 74.8792C443.228 96.4498 452.044 115.031 466.144 128.591L520.666 74.0592L466.964 20.347Z" fill="#161616"/>
<path opacity="0.5" d="M295.264 150.566H369.183V2.03101L295.264 150.566Z" fill="#171717"/>
<path d="M369.183 150.566H443.102L369.183 2.03101V150.566Z" fill="#161616"/>
<path opacity="0.5" d="M855.223 277.669V178.645H757.984C730.591 178.645 708.356 200.758 708.356 228.157H805.595C832.988 228.157 855.235 250.27 855.235 277.669H855.223Z" fill="#171717"/>
<path opacity="0.5" d="M855.235 277.669H757.581C730.465 277.669 708.356 255.555 708.217 228.434V327.18H805.859C833.114 327.18 855.223 305.067 855.223 277.807V277.669H855.235Z" fill="#171717"/>
<path d="M805.456 228.157H708.217C708.217 255.417 730.326 277.53 757.581 277.53H855.223C855.223 250.131 832.849 228.018 805.582 228.018L805.443 228.157H805.456Z" fill="#161616"/>
<path opacity="0.5" d="M1347.95 222.052H1291.26V231.134H1347.95V222.052Z" fill="#171717"/>
<path opacity="0.5" d="M1347.95 274.553H1291.26V283.635H1347.95V274.553Z" fill="#171717"/>
<path d="M1347.95 178.645H1291.26V222.052H1347.95V178.645Z" fill="#161616"/>
<path d="M1347.95 231.147H1291.26V274.553H1347.95V231.147Z" fill="#161616"/>
<path d="M1347.95 283.496H1291.26V326.903H1347.95V283.496Z" fill="#161616"/>
<path opacity="0.5" d="M1423.22 283.496H1347.95V326.903H1423.22V283.496Z" fill="#171717"/>
<path opacity="0.5" d="M1423.22 231.147H1347.95V274.553H1423.22V231.147Z" fill="#171717"/>
<path opacity="0.5" d="M1423.22 178.645H1347.95V222.052H1423.22V178.645Z" fill="#171717"/>
<path opacity="0.5" d="M969.286 178.645H876.247H932.396V277.669H969.551C995.595 277.669 1016.74 255.555 1016.74 228.296C1016.74 201.036 995.456 178.645 969.147 178.645H969.286Z" fill="#171717"/>
<path opacity="0.5" d="M876.247 178.645H875.705V327.18H932.396V277.669H876.247V178.645Z" fill="#171717"/>
<path d="M932.396 178.645H876.247V277.669H932.396V178.645Z" fill="#161616"/>
<path opacity="0.5" d="M1165.14 307.111C1178.56 320.003 1196.74 328 1216.81 328C1238.38 328 1257.76 318.779 1271.33 304.26L1219.66 252.578L1165.14 307.111Z" fill="#171717"/>
<path opacity="0.5" d="M1216.8 178.645C1197.13 178.645 1179.23 186.378 1165.94 198.728L1219.65 252.44L1270.64 201.44C1257.08 187.337 1237.96 178.519 1216.94 178.519L1216.8 178.658V178.645Z" fill="#171717"/>
<path d="M1165.94 198.854C1151.29 212.414 1142.21 231.815 1142.21 253.386C1142.21 274.956 1151.02 293.537 1165.13 307.098L1219.65 252.566L1165.94 198.854Z" fill="#161616"/>
<path opacity="0.5" d="M994.245 327.319H1068.16V178.784L994.245 327.319Z" fill="#171717"/>
<path d="M1068.16 327.319H1142.08L1068.16 178.784V327.319Z" fill="#161616"/>
</g>
<defs>
<clipPath id="clip0_73_380">
<rect width="1440" height="328" fill="white"/>
</clipPath>
</defs>
</svg>
