<svg width="130" height="39" viewBox="0 0 130 39" fill="none" xmlns="http://www.w3.org/2000/svg">
<path d="M17.3275 6.43219L2.64335 16.2884C1.4772 17.0724 0.775146 18.3903 0.775146 19.8034V34.4468C0.775146 36.7789 2.65319 38.6704 4.96976 38.6704H34.336C36.6526 38.6704 38.5306 36.7789 38.5306 34.4468V19.8034C38.5306 18.3903 37.8286 17.0724 36.6624 16.2884L21.9803 6.43219C20.5722 5.48745 18.7355 5.48745 17.3255 6.43219H17.3275Z" fill="#FF7B00"/>
<path d="M9.62455 2.47665C9.62455 1.42076 8.77501 0.563354 7.72881 0.563354H1.61879C1.15272 0.563354 0.775146 0.944425 0.775146 1.41481V7.58141C0.775146 8.63729 1.62469 9.4947 2.67089 9.4947C3.71708 9.4947 4.56663 8.63729 4.56663 7.58141V4.39192H7.72685C8.77304 4.39192 9.62259 3.53452 9.62259 2.47665H9.62455Z" fill="#FF7B00"/>
<path d="M36.6366 9.4947C37.6828 9.4947 38.5323 8.63729 38.5323 7.58141V1.41481C38.5323 0.944425 38.1548 0.563354 37.6887 0.563354H31.5787C30.5325 0.563354 29.6829 1.42076 29.6829 2.47665C29.6829 3.53253 30.5325 4.39192 31.5787 4.39192H34.7389V7.58141C34.7389 8.63729 35.5884 9.4947 36.6346 9.4947H36.6366Z" fill="#FF7B00"/>
<path d="M27.0288 15.6475C25.6719 15.6475 24.5707 16.7847 24.5707 18.1879V19.0354L29.487 27.5559V18.1879C29.487 16.7847 28.3858 15.6475 27.0288 15.6475Z" fill="white"/>
<path d="M21.6182 17.3602H21.6143C21.6143 17.3602 21.6143 17.3562 21.6143 17.3542C20.4599 15.0777 17.2545 15.0777 16.1021 17.3542V17.3602H16.0981L8.51913 30.2451C8.33427 30.6103 8.24578 31.0033 8.24774 31.3883V31.4161C8.24774 32.7916 9.34704 33.907 10.702 33.907H18.8828C20.2377 33.907 21.337 32.7916 21.337 31.4161C21.337 30.0407 20.2377 28.9273 18.8828 28.9273H15.0952L18.8592 22.8043L18.8454 22.7805C18.8513 22.7904 18.8651 22.7904 18.871 22.7805L18.8572 22.8043L24.8473 32.5554C25.4667 33.778 26.9475 34.2583 28.153 33.6311C29.3585 33.0019 29.8324 31.4995 29.213 30.2769L21.6182 17.3602Z" fill="white"/>
<path d="M122.685 24.1957V11.8843H104.772V7.12488H127.975V24.1957H122.685ZM117.033 26.7123H129.385V31.5035H103.417V26.7123H111.773V16.5842H117.033V26.7123Z" fill="#111111"/>
<path d="M95.4265 6.51758H100.386V21.9212H95.4265V6.51758ZM80.6696 18.1005C79.3776 20.1925 77.4838 21.558 75.0197 21.7386V17.2213C76.7621 16.737 77.8142 14.3414 78.0561 11.0666H75.592V6.82124H84.1877V11.0666H82.7148C82.6538 12.0967 82.5044 13.097 82.294 14.0378L84.4886 16.6755C85.6312 15.705 86.3509 13.6746 86.5318 11.0666H85.1494V6.82124H93.865V11.0666H91.1906C91.1296 11.9756 91.0096 12.8846 90.8307 13.7639L95.338 18.7079L92.1817 21.4369L89.2358 17.9795C87.9438 20.1329 86.0205 21.558 83.4955 21.7386L80.6696 18.1005ZM77.1534 27.2284V22.8302H100.386V32.7162H95.216V27.2284H77.1534Z" fill="#111111"/>
<path d="M67.1474 6.51758H72.2269V19.9205H67.1474V6.51758ZM56.7484 16.0999C54.7346 18.3129 51.6393 19.9503 47.9717 20.0416V15.5839C51.2775 15.4013 53.4721 13.2181 54.0719 11.0349H48.3316V6.82124H64.9213V11.0349H59.24C59.179 11.4913 59.059 11.9459 58.9391 12.4301L65.7924 15.9788L63.5093 19.7677L56.7464 16.0999H56.7484ZM67.2378 22.5285V20.8296H72.2269V32.4125H49.2657V20.8296H54.2548V22.5285H67.2378ZM54.2528 28.3498H67.2359V26.5H54.2528V28.3498Z" fill="#111111"/>
</svg>
