<svg width="213" height="29" viewBox="0 0 213 29" fill="none" xmlns="http://www.w3.org/2000/svg">
<path d="M19.9668 0.931274V19.5979C19.9668 22.4891 19.1257 24.7118 17.4479 26.2747C15.7701 27.8377 13.5026 28.6169 10.6544 28.6169C7.80631 28.6169 5.2782 27.7978 3.47698 26.1552C1.67576 24.517 0.775146 22.1836 0.775146 19.164H7.62801C7.62801 20.3108 7.87031 21.1742 8.3549 21.763C8.83949 22.3475 9.53895 22.6397 10.4533 22.6397C11.2853 22.6397 11.9299 22.3785 12.3871 21.8604C12.8442 21.338 13.0728 20.5853 13.0728 19.5935V0.931274H19.9668Z" fill="black"/>
<path d="M42.3449 23.4986H31.7799L30.0838 28.3424H22.8652L33.1102 0.931274H41.0923L51.3327 28.3424H44.0364L42.3449 23.4986ZM40.5711 18.3449L37.0647 8.30762L33.5994 18.3449H40.5757H40.5711Z" fill="black"/>
<path d="M78.9545 28.3424H72.0605L60.5309 11.4335V28.3424H53.6368V0.931274H60.5309L72.0605 17.9199V0.931274H78.9545V28.3424Z" fill="black"/>
<path d="M101.936 9.59604C101.424 8.68396 100.693 7.98883 99.7371 7.50622C98.7816 7.02361 97.6616 6.78453 96.3724 6.78453C94.1414 6.78453 92.3539 7.49294 91.0099 8.91419C89.6658 10.3354 88.9938 12.226 88.9938 14.5948C88.9938 17.1185 89.6978 19.0932 91.1104 20.51C92.5231 21.9313 94.4614 22.6397 96.9347 22.6397C98.6262 22.6397 100.062 22.2235 101.227 21.3911C102.393 20.5587 103.248 19.3588 103.788 17.8003H95.0375V12.8813H110.037V19.0888C109.525 20.7535 108.661 22.3032 107.436 23.7377C106.211 25.1678 104.661 26.3279 102.777 27.2134C100.894 28.0989 98.7725 28.5416 96.4089 28.5416C93.6111 28.5416 91.1196 27.9483 88.9298 26.7662C86.74 25.584 85.0302 23.937 83.8095 21.825C82.5889 19.7175 81.9763 17.3089 81.9763 14.5992C81.9763 11.8895 82.5889 9.47649 83.8095 7.35568C85.0302 5.23487 86.7354 3.58339 88.9115 2.3968C91.0876 1.21463 93.5745 0.621338 96.3724 0.621338C99.7599 0.621338 102.613 1.41387 104.94 3.00337C107.262 4.59287 108.803 6.79338 109.557 9.60489H101.936V9.59604Z" fill="black"/>
<path d="M130.806 0.931274V19.5979C130.806 22.4891 129.965 24.7118 128.287 26.2747C126.605 27.8377 124.342 28.6169 121.493 28.6169C118.645 28.6169 116.117 27.7978 114.316 26.1552C112.515 24.5126 111.614 22.1836 111.614 19.164H118.467C118.467 20.3108 118.709 21.1742 119.194 21.763C119.679 22.3475 120.378 22.6397 121.292 22.6397C122.124 22.6397 122.769 22.3785 123.226 21.8604C123.683 21.338 123.912 20.5853 123.912 19.5935V0.931274H130.806Z" fill="black"/>
<path d="M142.459 6.27979V11.8231H151.694V16.9768H142.459V22.9895H152.901V28.338H135.56V0.931274H152.901V6.27979H142.459Z" fill="black"/>
<path d="M212.775 28.3424H205.881L194.351 11.4335V28.3424H187.457V0.931274H194.351L205.881 17.9199V0.931274H212.775V28.3424Z" fill="black"/>
<path d="M169.898 0.696533C161.98 0.696533 155.566 6.91285 155.566 14.577C155.566 22.2411 161.984 28.4574 169.898 28.4574C177.811 28.4574 184.23 22.2411 184.23 14.577C184.23 6.91285 177.811 0.696533 169.898 0.696533ZM169.898 24.663C164.147 24.663 159.488 20.1469 159.488 14.5814C159.488 9.01595 164.151 4.49982 169.898 4.49982C175.644 4.49982 180.307 9.01595 180.307 14.5814C180.307 20.1469 175.644 24.663 169.898 24.663Z" fill="#EB0F29"/>
<path d="M169.898 11.057C167.891 11.057 166.263 12.6332 166.263 14.5769C166.263 16.5206 167.891 18.0969 169.898 18.0969C171.905 18.0969 173.532 16.5206 173.532 14.5769C173.532 12.6332 171.905 11.057 169.898 11.057Z" fill="#EB0F29"/>
</svg>
