<svg width="225" height="27" viewBox="0 0 225 27" fill="none" xmlns="http://www.w3.org/2000/svg">
<path d="M0.775146 26.2007V21.0717H27.2342V26.2007H0.775146ZM1.03381 13.9237C2.63347 13.153 4.06976 12.3004 5.33588 11.3592C6.60199 10.418 7.71835 9.40169 8.67815 8.31722C9.61752 7.24639 10.3391 6.10735 10.8564 4.88647C11.3669 3.66559 11.6528 2.38332 11.7209 1.03967H17.7043C17.6635 1.93999 17.5682 2.79938 17.4184 3.63831C17.2687 4.47042 17.0576 5.27524 16.7785 6.04597C17.7383 6.59843 18.6641 7.16454 19.5626 7.73065C20.4612 8.29676 21.2984 8.8765 22.0881 9.47671C22.8573 10.1178 23.6537 10.8135 24.4841 11.5638C25.3146 12.3141 26.1723 13.1325 27.0436 14.0329L23.2657 18.3298C22.5169 17.4977 21.7545 16.7065 20.9649 15.9563C20.1753 15.206 19.3652 14.4898 18.5348 13.8078C17.7656 13.2758 17.0168 12.7574 16.2816 12.2663C15.5465 11.7752 14.8045 11.3183 14.0557 10.8886L13.6745 11.3728C13.0551 12.1231 12.3948 12.8324 11.6937 13.5077C10.9925 14.1829 10.2438 14.8036 9.45415 15.3833C8.62369 16.004 7.77281 16.5633 6.90831 17.068C6.04381 17.5727 5.1657 18.0229 4.26717 18.4321L1.03381 13.9237Z" fill="#0059FF"/>
<path d="M35.743 1.19657V20.2669H40.6033C41.0525 20.2669 41.5018 20.2532 41.9443 20.2328C42.3935 20.2123 42.8428 20.1714 43.2853 20.1032C43.7345 20.0827 44.143 20.0418 44.5173 19.9736C44.8917 19.9122 45.2389 19.8235 45.5588 19.7144V24.4615C45.2593 24.632 44.9258 24.7685 44.5514 24.8639C44.177 24.9594 43.7686 25.0276 43.3193 25.0754C42.8292 25.1368 42.3459 25.1845 41.8762 25.205C41.4065 25.2254 40.9368 25.2391 40.4671 25.2391H29.8141V1.19657H35.7362H35.743ZM57.2738 9.33351V14.8786C57.1444 14.8786 57.0083 14.8786 56.8585 14.8923C56.7088 14.9059 56.5522 14.9196 56.3752 14.94C56.2051 14.94 56.0349 14.9537 55.8647 14.9741C55.6945 14.9946 55.5107 15.0082 55.3201 15.0082C54.9594 15.0696 54.6122 15.1378 54.2787 15.1992C53.9451 15.2606 53.632 15.3288 53.3325 15.3902V26.5759H47.4103V0.780518H53.3325V9.92008C53.632 9.83823 53.9451 9.75638 54.2787 9.68136C54.6122 9.60633 54.9662 9.53813 55.3474 9.46992C55.538 9.46992 55.7286 9.45628 55.9056 9.43582C56.0893 9.41536 56.2527 9.40172 56.4025 9.40172C56.5726 9.38125 56.7292 9.36761 56.8654 9.35397C57.0015 9.34033 57.1376 9.34033 57.267 9.34033L57.2738 9.33351Z" fill="#1D1D1B"/>
<path d="M68.553 0.794156C69.0976 0.910106 69.6217 1.08062 70.1391 1.29206C70.6087 1.55124 71.0444 1.85816 71.4528 2.21965C71.8544 2.58114 72.2424 3.01084 72.6032 3.50192C72.9231 4.01346 73.2226 4.60003 73.5017 5.24799C73.7808 5.90276 74.0123 6.6121 74.2029 7.38282C74.373 8.19447 74.5092 9.08114 74.6045 10.0428C74.6998 11.0045 74.7474 12.0413 74.7474 13.153C74.7474 14.2648 74.6998 15.3697 74.6045 16.345C74.5092 17.3204 74.373 18.1866 74.2029 18.9573C74.0123 19.769 73.774 20.4988 73.5017 21.1399C73.2226 21.781 72.9231 22.3471 72.6032 22.8382C72.2424 23.3498 71.8544 23.7863 71.4528 24.1546C71.0444 24.5161 70.6087 24.8094 70.1391 25.0208C69.6285 25.2595 69.0976 25.43 68.553 25.5324C68.0084 25.6415 67.4366 25.696 66.8444 25.696C66.2046 25.696 65.6124 25.6415 65.0678 25.5324C64.5232 25.4232 64.0195 25.2527 63.5498 25.0208C63.0393 24.8094 62.5764 24.5161 62.1612 24.1546C61.7459 23.7931 61.3784 23.3566 61.0584 22.8382C60.6977 22.3471 60.3845 21.781 60.1327 21.1399C59.8808 20.4988 59.663 19.7758 59.4928 18.9573C59.3022 18.1866 59.1593 17.3204 59.0776 16.345C58.9891 15.3697 58.9482 14.3125 58.9482 13.153C58.9482 11.9935 58.9891 11.0045 59.0776 10.0428C59.1593 9.08114 59.3022 8.19447 59.4928 7.38282C59.663 6.6121 59.874 5.90276 60.1327 5.24799C60.3913 4.59321 60.6977 4.01346 61.0584 3.50192C61.3784 3.01084 61.7459 2.58114 62.1612 2.21965C62.5764 1.85816 63.0393 1.54442 63.5498 1.29206C64.0195 1.08062 64.5232 0.910106 65.0678 0.794156C65.6124 0.678206 66.2046 0.616821 66.8444 0.616821C67.4435 0.616821 68.0152 0.678206 68.553 0.794156ZM66.3475 5.98461C66.1842 6.03917 66.0412 6.09374 65.9187 6.16194C65.7485 6.27107 65.5987 6.40066 65.4694 6.56436C65.3401 6.72123 65.2244 6.93267 65.1154 7.19185C64.9861 7.45103 64.884 7.76477 64.8091 8.13991C64.7342 8.51504 64.6662 8.92427 64.5981 9.37443C64.5164 9.86551 64.4552 10.4248 64.4211 11.0591C64.3871 11.6866 64.3735 12.3891 64.3735 13.1598C64.3735 13.9715 64.3871 14.6945 64.4211 15.322C64.4552 15.9495 64.5096 16.4951 64.5981 16.9384C64.6594 17.4295 64.7342 17.8592 64.8091 18.2207C64.884 18.5822 64.9861 18.8959 65.1154 19.1483C65.2244 19.4075 65.3401 19.6189 65.4694 19.7894C65.5987 19.9599 65.7485 20.0759 65.9187 20.1441C66.048 20.2532 66.191 20.3214 66.3475 20.3555C66.5041 20.3896 66.6743 20.4033 66.8444 20.4033C66.9738 20.4033 67.1099 20.3896 67.2597 20.3555C67.4094 20.3214 67.566 20.2532 67.743 20.1441C67.8723 20.0827 68.0016 19.9599 68.1446 19.7894C68.2807 19.6189 68.4169 19.4075 68.5462 19.1483C68.6279 18.8891 68.7232 18.5822 68.8185 18.2207C68.9138 17.8592 69.0023 17.4295 69.0908 16.9384C69.152 16.4883 69.2065 15.9495 69.2541 15.322C69.295 14.6945 69.3154 13.9715 69.3154 13.1598C69.3154 12.3891 69.295 11.6934 69.2541 11.0591C69.2133 10.4316 69.1588 9.86551 69.0908 9.37443C69.0023 8.92427 68.9138 8.51504 68.8185 8.13991C68.7232 7.76477 68.6347 7.45103 68.5462 7.19185C68.4169 6.93267 68.2875 6.72805 68.1446 6.56436C68.0016 6.40066 67.8723 6.27107 67.743 6.16194C67.5728 6.10056 67.4094 6.03917 67.2597 5.98461C67.1099 5.93004 66.9738 5.90276 66.8444 5.90276C66.6743 5.90276 66.5109 5.93004 66.3475 5.98461ZM77.1776 26.5827V0.780515H83.0997V26.5827H77.1776Z" fill="#1D1D1B"/>
<path d="M88.0553 5.84138H86.6122V1.03288H102.003V5.84138H100.213V20.3965H102.003V25.205H86.6122V20.3965H88.0553V5.84138ZM95.0938 20.3965V5.84138H93.1742V20.3965H95.0938ZM105.488 15.0423C105.318 15.1037 105.121 15.1515 104.896 15.1719C104.671 15.1924 104.419 15.206 104.147 15.206C103.827 15.2265 103.514 15.2401 103.201 15.2401H101.812V10.1111H105.488V0.780518H111.09V26.6168H105.488V15.0423Z" fill="#1D1D1B"/>
<path d="M115.726 5.20024H114.508V0.876006H127.305V5.20707H126.059V10.9432H127.305V15.2674H114.508V10.9432H115.726V5.20024ZM135.432 26.6168V22.3199H116.4V17.1908H141.035V26.6168H135.439H135.432ZM121.709 10.9363V5.20024H120.076V10.9363H121.709ZM136.072 10.5203C135.793 10.5817 135.507 10.6294 135.208 10.6635C134.908 10.6976 134.602 10.7113 134.282 10.7113V16.0654H129.32V0.780518H134.282V5.6845H136.072V0.780518H141.035V16.0722H136.072V10.5271V10.5203Z" fill="#0059FF"/>
<path d="M162.722 13.6305C163.321 13.6305 163.893 13.6305 164.451 13.6168C165.002 13.6032 165.54 13.5827 166.051 13.535C166.52 13.535 166.976 13.5077 167.412 13.4531C167.848 13.3986 168.263 13.344 168.644 13.2758V17.8592C168.345 17.9683 167.997 18.057 167.603 18.132C167.208 18.2071 166.765 18.2548 166.275 18.2753C165.765 18.3367 165.227 18.3844 164.662 18.4049C164.097 18.4253 163.518 18.439 162.919 18.439H159.434V21.3855H169.767V26.1939H143.308V21.3855H153.641V18.439H144.874V0.780518H168.168V5.58902H150.313V7.19185H167.848V12.0003H150.313V13.6373H162.729L162.722 13.6305Z" fill="#1D1D1B"/>
<path d="M172.674 10.5203H181.666V5.99825H172.837V1.03288H187.105V15.3288H178.113V20.2328H187.997V25.205H172.674V10.5203ZM190.27 26.5827V0.780518H196.192V26.5827H190.27Z" fill="#1D1D1B"/>
<path d="M211.821 18.2753C214.374 18.2753 216.443 16.2018 216.443 13.6441C216.443 11.0864 214.374 9.01294 211.821 9.01294C209.269 9.01294 207.199 11.0864 207.199 13.6441C207.199 16.2018 209.269 18.2753 211.821 18.2753Z" fill="#0059FF"/>
<path d="M223.611 12.1982H222.114C221.48 7.4579 217.675 3.71341 212.91 3.1814V1.85821C212.91 1.21708 212.386 0.691895 211.746 0.691895C211.107 0.691895 210.582 1.21708 210.582 1.85821V3.1814C205.817 3.71341 202.012 7.4579 201.379 12.1982H200.031C199.392 12.1982 198.867 12.7234 198.867 13.3645C198.867 14.0056 199.392 14.5308 200.031 14.5308H201.325C201.767 19.4894 205.661 23.4658 210.576 24.0114V25.3687C210.576 26.0098 211.1 26.535 211.74 26.535C212.379 26.535 212.904 26.0098 212.904 25.3687V24.0114C217.818 23.4658 221.719 19.4894 222.154 14.5308H223.604C224.244 14.5308 224.768 14.0056 224.768 13.3645C224.768 12.7234 224.244 12.1982 223.604 12.1982H223.611ZM212.91 21.6651C212.529 21.7197 212.141 21.747 211.746 21.747C211.352 21.747 210.964 21.7197 210.582 21.6651C206.947 21.14 204.088 18.2071 203.666 14.5376C203.632 14.2307 203.612 13.917 203.612 13.6032C203.612 13.1258 203.653 12.662 203.734 12.205C204.333 8.7538 207.104 6.03922 210.582 5.5345C210.964 5.47993 211.352 5.45265 211.746 5.45265C212.141 5.45265 212.529 5.47993 212.91 5.5345C216.389 6.03922 219.159 8.74698 219.758 12.205C219.84 12.662 219.881 13.1258 219.881 13.6032C219.881 13.917 219.86 14.2307 219.826 14.5376C219.404 18.2071 216.545 21.1468 212.91 21.6651Z" fill="#0059FF"/>
</svg>
