<svg width="44" height="44" viewBox="0 0 44 44" fill="none" xmlns="http://www.w3.org/2000/svg">
<rect width="44" height="44" fill="white"/>
<path d="M35.7781 19.2797C35.7781 28.8038 21.9984 37.8478 21.9984 37.8478C21.9984 37.8478 8.21875 28.8038 8.21875 19.2797C8.21875 11.6694 14.3881 5.5 21.9984 5.5C29.6088 5.5 35.7781 11.6694 35.7781 19.2797Z" fill="#131313"/>
<path d="M21.3802 26.1182C18.5335 26.1182 16.4925 24.5427 16.4388 22.2868H19.1602C19.2139 23.2536 20.1449 23.8981 21.3981 23.8981C22.6872 23.8981 23.6182 23.1641 23.6003 22.1257C23.6182 21.0694 22.6693 20.3174 21.1475 20.3174H19.9479V18.3301H21.1475C22.4186 18.3301 23.3138 17.6319 23.3138 16.6113C23.3138 15.6266 22.5618 14.9463 21.416 14.9463C20.2702 14.9463 19.3213 15.5908 19.2855 16.5755H16.7074C16.7432 14.3376 18.7663 12.7979 21.416 12.7979C24.1195 12.7979 25.9277 14.3913 25.9098 16.4502C25.9277 17.9004 24.9072 18.9388 23.457 19.1895V19.2969C25.3548 19.5296 26.4111 20.6934 26.3932 22.3047C26.4111 24.5248 24.2985 26.1182 21.3802 26.1182Z" fill="white"/>
</svg>
