<svg width="44" height="44" viewBox="0 0 44 44" fill="none" xmlns="http://www.w3.org/2000/svg">
<rect width="44" height="44" fill="white"/>
<path d="M35.7781 19.2797C35.7781 28.8038 21.9984 37.8478 21.9984 37.8478C21.9984 37.8478 8.21875 28.8038 8.21875 19.2797C8.21875 11.6694 14.3881 5.5 21.9984 5.5C29.6088 5.5 35.7781 11.6694 35.7781 19.2797Z" fill="#131313"/>
<path d="M16.8416 25.9391L16.8237 23.9877L21.4787 19.7087C22.6961 18.5449 23.3407 17.8288 23.3407 16.8083C23.3407 15.6625 22.4634 14.9463 21.2817 14.9463C20.0643 14.9463 19.2765 15.7162 19.2765 16.9515H16.7163C16.6984 14.4092 18.5783 12.7979 21.3175 12.7979C24.0926 12.7979 25.9367 14.3734 25.9367 16.6293C25.9367 18.0973 25.2205 19.3148 22.5529 21.7318L20.5835 23.6475V23.7191H26.1157V25.9391H16.8416Z" fill="white"/>
</svg>
